<svg width="29" height="29" viewBox="0 0 29 29" fill="none" xmlns="http://www.w3.org/2000/svg">
<path d="M11.2462 13.804L21.6906 6.62794C22.52 6.07259 23.2 6.48004 23.2 7.53419V21.4672C23.2 22.5185 22.52 22.9259 21.6906 22.3735L11.2462 15.1945C11.2462 15.1945 10.8417 14.906 10.8417 14.5014C10.8417 14.0954 11.2462 13.804 11.2462 13.804ZM8.70001 5.79999H7.25001C6.44816 5.79999 5.80001 5.86959 5.80001 6.66999V22.33C5.80001 23.1304 6.44816 23.2 7.25001 23.2H8.70001C9.50186 23.2 10.15 23.1304 10.15 22.33V6.66999C10.15 5.86959 9.50186 5.79999 8.70001 5.79999Z" fill="#F6F6F6"/>
</svg>
