<svg width="311" height="64" viewBox="0 0 311 64" fill="none" xmlns="http://www.w3.org/2000/svg">
<path d="M48 20.84V41.072C46.4749 40.1915 44.7018 39.8388 42.9558 40.0686C41.2098 40.2985 39.5884 41.0981 38.3431 42.3434C37.0979 43.5887 36.2983 45.2101 36.0684 46.9561C35.8386 48.7021 36.1913 50.4752 37.0719 52.0003C37.9524 53.5254 39.3116 54.7174 40.9387 55.3913C42.5657 56.0652 44.3696 56.1834 46.0707 55.7276C47.7718 55.2717 49.2749 54.2673 50.3469 52.8702C51.419 51.473 52.0001 49.7611 52 48V7.704C52.0006 7.19055 51.8777 6.68449 51.6415 6.22856C51.4054 5.77263 51.063 5.38022 50.6433 5.08446C50.2236 4.7887 49.7389 4.59828 49.2301 4.52927C48.7213 4.46027 48.2033 4.51471 47.72 4.688L22.12 13.832C21.4994 14.0545 20.9627 14.4633 20.5832 15.0024C20.2037 15.5415 20.0001 16.1847 20 16.844V45.068C18.475 44.1875 16.7021 43.8348 14.9563 44.0646C13.2104 44.2943 11.5891 45.0937 10.3438 46.3387C9.09853 47.5837 8.29879 49.2048 8.06864 50.9506C7.83848 52.6964 8.19077 54.4694 9.07086 55.9946C9.95095 57.5198 11.3097 58.712 12.9364 59.3863C14.563 60.0607 16.3667 60.1795 18.0678 59.7243C19.7689 59.2692 21.2723 58.2655 22.3448 56.8689C23.4174 55.4724 23.9992 53.7609 24 52V29.412L48 20.844V20.84Z" fill="url(#paint0_linear_1_7)"/>
<path d="M91.268 19.872C93.908 19.872 96.224 20.388 98.216 21.42C100.232 22.452 101.78 23.928 102.86 25.848C103.964 27.744 104.516 29.952 104.516 32.472C104.516 34.992 103.964 37.2 102.86 39.096C101.78 40.968 100.232 42.42 98.216 43.452C96.224 44.484 93.908 45 91.268 45H82.484V19.872H91.268ZM91.088 40.716C93.728 40.716 95.768 39.996 97.208 38.556C98.648 37.116 99.368 35.088 99.368 32.472C99.368 29.856 98.648 27.816 97.208 26.352C95.768 24.864 93.728 24.12 91.088 24.12H87.524V40.716H91.088ZM113.329 28.152C113.977 27.096 114.817 26.268 115.849 25.668C116.905 25.068 118.105 24.768 119.449 24.768V30.06H118.117C116.533 30.06 115.333 30.432 114.517 31.176C113.725 31.92 113.329 33.216 113.329 35.064V45H108.289V25.056H113.329V28.152ZM141.383 34.596C141.383 35.316 141.335 35.964 141.239 36.54H126.659C126.779 37.98 127.283 39.108 128.171 39.924C129.059 40.74 130.151 41.148 131.447 41.148C133.319 41.148 134.651 40.344 135.443 38.736H140.879C140.303 40.656 139.199 42.24 137.567 43.488C135.935 44.712 133.931 45.324 131.555 45.324C129.635 45.324 127.907 44.904 126.371 44.064C124.859 43.2 123.671 41.988 122.807 40.428C121.967 38.868 121.547 37.068 121.547 35.028C121.547 32.964 121.967 31.152 122.807 29.592C123.647 28.032 124.823 26.832 126.335 25.992C127.847 25.152 129.587 24.732 131.555 24.732C133.451 24.732 135.143 25.14 136.631 25.956C138.143 26.772 139.307 27.936 140.123 29.448C140.963 30.936 141.383 32.652 141.383 34.596ZM136.163 33.156C136.139 31.86 135.671 30.828 134.759 30.06C133.847 29.268 132.731 28.872 131.411 28.872C130.163 28.872 129.107 29.256 128.243 30.024C127.403 30.768 126.887 31.812 126.695 33.156H136.163ZM143.766 34.956C143.766 32.94 144.162 31.152 144.954 29.592C145.77 28.032 146.862 26.832 148.23 25.992C149.622 25.152 151.17 24.732 152.874 24.732C154.362 24.732 155.658 25.032 156.762 25.632C157.89 26.232 158.79 26.988 159.462 27.9V25.056H164.538V45H159.462V42.084C158.814 43.02 157.914 43.8 156.762 44.424C155.634 45.024 154.326 45.324 152.838 45.324C151.158 45.324 149.622 44.892 148.23 44.028C146.862 43.164 145.77 41.952 144.954 40.392C144.162 38.808 143.766 36.996 143.766 34.956ZM159.462 35.028C159.462 33.804 159.222 32.76 158.742 31.896C158.262 31.008 157.614 30.336 156.798 29.88C155.982 29.4 155.106 29.16 154.17 29.16C153.234 29.16 152.37 29.388 151.578 29.844C150.786 30.3 150.138 30.972 149.634 31.86C149.154 32.724 148.914 33.756 148.914 34.956C148.914 36.156 149.154 37.212 149.634 38.124C150.138 39.012 150.786 39.696 151.578 40.176C152.394 40.656 153.258 40.896 154.17 40.896C155.106 40.896 155.982 40.668 156.798 40.212C157.614 39.732 158.262 39.06 158.742 38.196C159.222 37.308 159.462 36.252 159.462 35.028ZM194.229 24.768C196.677 24.768 198.645 25.524 200.133 27.036C201.645 28.524 202.401 30.612 202.401 33.3V45H197.361V33.984C197.361 32.424 196.965 31.236 196.173 30.42C195.381 29.58 194.301 29.16 192.933 29.16C191.565 29.16 190.473 29.58 189.657 30.42C188.865 31.236 188.469 32.424 188.469 33.984V45H183.429V33.984C183.429 32.424 183.033 31.236 182.241 30.42C181.449 29.58 180.369 29.16 179.001 29.16C177.609 29.16 176.505 29.58 175.689 30.42C174.897 31.236 174.501 32.424 174.501 33.984V45H169.461V25.056H174.501V27.468C175.149 26.628 175.977 25.968 176.985 25.488C178.017 25.008 179.145 24.768 180.369 24.768C181.929 24.768 183.321 25.104 184.545 25.776C185.769 26.424 186.717 27.36 187.389 28.584C188.037 27.432 188.973 26.508 190.197 25.812C191.445 25.116 192.789 24.768 194.229 24.768Z" fill="#FF5656"/>
<path d="M233.751 19.98V45H229.647V27.864L222.015 45H219.171L211.503 27.864V45H207.399V19.98H211.827L220.611 39.6L229.359 19.98H233.751ZM257.109 25.164V45H253.005V42.66C252.357 43.476 251.505 44.124 250.449 44.604C249.417 45.06 248.313 45.288 247.137 45.288C245.577 45.288 244.173 44.964 242.925 44.316C241.701 43.668 240.729 42.708 240.009 41.436C239.313 40.164 238.965 38.628 238.965 36.828V25.164H243.033V36.216C243.033 37.992 243.477 39.36 244.365 40.32C245.253 41.256 246.465 41.724 248.001 41.724C249.537 41.724 250.749 41.256 251.637 40.32C252.549 39.36 253.005 37.992 253.005 36.216V25.164H257.109ZM269.724 45.324C268.164 45.324 266.76 45.048 265.512 44.496C264.288 43.92 263.316 43.152 262.596 42.192C261.876 41.208 261.492 40.116 261.444 38.916H265.692C265.764 39.756 266.16 40.464 266.88 41.04C267.624 41.592 268.548 41.868 269.652 41.868C270.804 41.868 271.692 41.652 272.316 41.22C272.964 40.764 273.288 40.188 273.288 39.492C273.288 38.748 272.928 38.196 272.208 37.836C271.512 37.476 270.396 37.08 268.86 36.648C267.372 36.24 266.16 35.844 265.224 35.46C264.288 35.076 263.472 34.488 262.776 33.696C262.104 32.904 261.768 31.86 261.768 30.564C261.768 29.508 262.08 28.548 262.704 27.684C263.328 26.796 264.216 26.1 265.368 25.596C266.544 25.092 267.888 24.84 269.4 24.84C271.656 24.84 273.468 25.416 274.836 26.568C276.228 27.696 276.972 29.244 277.068 31.212H272.964C272.892 30.324 272.532 29.616 271.884 29.088C271.236 28.56 270.36 28.296 269.256 28.296C268.176 28.296 267.348 28.5 266.772 28.908C266.196 29.316 265.908 29.856 265.908 30.528C265.908 31.056 266.1 31.5 266.484 31.86C266.868 32.22 267.336 32.508 267.888 32.724C268.44 32.916 269.256 33.168 270.336 33.48C271.776 33.864 272.952 34.26 273.864 34.668C274.8 35.052 275.604 35.628 276.276 36.396C276.948 37.164 277.296 38.184 277.32 39.456C277.32 40.584 277.008 41.592 276.384 42.48C275.76 43.368 274.872 44.064 273.72 44.568C272.592 45.072 271.26 45.324 269.724 45.324ZM283.843 22.536C283.099 22.536 282.475 22.284 281.971 21.78C281.467 21.276 281.215 20.652 281.215 19.908C281.215 19.164 281.467 18.54 281.971 18.036C282.475 17.532 283.099 17.28 283.843 17.28C284.563 17.28 285.175 17.532 285.679 18.036C286.183 18.54 286.435 19.164 286.435 19.908C286.435 20.652 286.183 21.276 285.679 21.78C285.175 22.284 284.563 22.536 283.843 22.536ZM285.859 25.164V45H281.755V25.164H285.859ZM289.879 35.064C289.879 33.024 290.287 31.236 291.103 29.7C291.943 28.14 293.095 26.94 294.559 26.1C296.023 25.26 297.703 24.84 299.599 24.84C301.999 24.84 303.979 25.416 305.539 26.568C307.123 27.696 308.191 29.316 308.743 31.428H304.315C303.955 30.444 303.379 29.676 302.587 29.124C301.795 28.572 300.799 28.296 299.599 28.296C297.919 28.296 296.575 28.896 295.567 30.096C294.583 31.272 294.091 32.928 294.091 35.064C294.091 37.2 294.583 38.868 295.567 40.068C296.575 41.268 297.919 41.868 299.599 41.868C301.975 41.868 303.547 40.824 304.315 38.736H308.743C308.167 40.752 307.087 42.36 305.503 43.56C303.919 44.736 301.951 45.324 299.599 45.324C297.703 45.324 296.023 44.904 294.559 44.064C293.095 43.2 291.943 42 291.103 40.464C290.287 38.904 289.879 37.104 289.879 35.064Z" fill="#F6F6F6"/>
<defs>
<linearGradient id="paint0_linear_1_7" x1="30" y1="4.50024" x2="69.8199" y2="24.4789" gradientUnits="userSpaceOnUse">
<stop stop-color="#FF5353"/>
<stop offset="1" stop-color="#E91E1E"/>
</linearGradient>
</defs>
</svg>
