<svg width="29" height="29" viewBox="0 0 29 29" fill="none" xmlns="http://www.w3.org/2000/svg">
<path d="M17.7538 13.804L7.30944 6.62794C6.48004 6.07259 5.79999 6.48004 5.79999 7.53419V21.4672C5.79999 22.5185 6.48004 22.9259 7.30944 22.3735L17.7538 15.1945C17.7538 15.1945 18.1583 14.906 18.1583 14.5014C18.1583 14.0954 17.7538 13.804 17.7538 13.804ZM20.3 5.79999H21.75C22.5518 5.79999 23.2 5.86959 23.2 6.66999V22.33C23.2 23.1304 22.5518 23.2 21.75 23.2H20.3C19.4981 23.2 18.85 23.1304 18.85 22.33V6.66999C18.85 5.86959 19.4981 5.79999 20.3 5.79999Z" fill="#F6F6F6"/>
</svg>
