<svg width="41" height="41" viewBox="0 0 41 41" fill="none" xmlns="http://www.w3.org/2000/svg">
<rect width="41" height="41" rx="10" fill="#480000"/>
<path d="M12.3438 31.375C12.1034 31.375 11.8729 31.2795 11.7029 31.1096C11.533 30.9396 11.4375 30.7091 11.4375 30.4687V10.5312C11.4375 10.3738 11.4786 10.219 11.5566 10.0822C11.6347 9.94546 11.747 9.83138 11.8826 9.75125C12.0182 9.67112 12.1723 9.62769 12.3297 9.62526C12.4872 9.62283 12.6426 9.66147 12.7806 9.73737L30.9056 19.7061C31.0477 19.7844 31.1661 19.8993 31.2487 20.0389C31.3312 20.1786 31.3747 20.3378 31.3747 20.5C31.3747 20.6622 31.3312 20.8214 31.2487 20.9611C31.1661 21.1007 31.0477 21.2156 30.9056 21.2939L12.7806 31.2626C12.6468 31.3363 12.4965 31.375 12.3438 31.375Z" fill="#F6F6F6"/>
</svg>
