<svg width="20" height="20" viewBox="0 0 20 20" fill="none" xmlns="http://www.w3.org/2000/svg">
<path d="M12.26 1.90751L12.1875 1.84251C12.0272 1.71598 11.8261 1.65269 11.6222 1.66468C11.4184 1.67666 11.226 1.76307 11.0817 1.90751L11.0167 1.98001C10.8902 2.14015 10.827 2.34117 10.8389 2.54488C10.8509 2.74859 10.9373 2.94081 11.0817 3.08501L12.1642 4.16585H7.49919L7.29919 4.16918C5.7884 4.2206 4.35662 4.85675 3.30582 5.94346C2.25502 7.03018 1.66732 8.48251 1.66669 9.99418C1.66669 11.1983 2.03169 12.3175 2.65752 13.2433C2.78604 13.423 2.98068 13.5443 3.19861 13.5805C3.41654 13.6167 3.63992 13.5648 3.8196 13.4363C3.99929 13.3077 4.12056 13.1131 4.15674 12.8952C4.19292 12.6772 4.14104 12.4539 4.01252 12.2742L3.90002 12.0925C3.53117 11.4596 3.33581 10.7405 3.33369 10.0079C3.33156 9.27537 3.52273 8.5552 3.8879 7.92012C4.25307 7.28504 4.77932 6.75754 5.41352 6.39086C6.04773 6.02418 6.76744 5.8313 7.50002 5.83168H12.1625L11.0817 6.91251L11.0167 6.98501C10.8814 7.15142 10.8155 7.36362 10.8328 7.5774C10.8501 7.79118 10.9492 7.99003 11.1096 8.13251C11.2699 8.27499 11.479 8.3501 11.6933 8.34218C11.9077 8.33426 12.1107 8.24393 12.26 8.09001L14.765 5.58751L14.8292 5.51501C14.9557 5.35487 15.0189 5.15386 15.0069 4.95015C14.995 4.74643 14.9086 4.55422 14.7642 4.41001L12.26 1.90751ZM17.3225 6.71668C17.2158 6.57973 17.0689 6.47956 16.9025 6.43022C16.736 6.38087 16.5583 6.3848 16.3942 6.44147C16.23 6.49813 16.0877 6.60469 15.9872 6.74624C15.8866 6.88778 15.8328 7.05722 15.8334 7.23085C15.8334 7.40501 15.8867 7.56585 15.9767 7.69835C16.391 8.32601 16.6277 9.05417 16.6614 9.80551C16.6952 10.5568 16.5249 11.3033 16.1685 11.9656C15.8122 12.6279 15.2831 13.1814 14.6374 13.5671C13.9918 13.9529 13.2538 14.1566 12.5017 14.1567H7.84502L8.92336 13.0817L8.99252 13.0017C9.10601 12.8547 9.16716 12.674 9.16625 12.4883C9.16535 12.3026 9.10244 12.1225 8.98752 11.9767L8.92336 11.9033L8.84419 11.8333C8.697 11.7196 8.51602 11.6583 8.33 11.6592C8.14397 11.6601 7.96359 11.7232 7.81752 11.8383L7.74419 11.9033L5.24002 14.4058L5.17085 14.485C5.05716 14.6321 4.99589 14.8129 4.9968 14.9988C4.99771 15.1847 5.06073 15.3649 5.17585 15.5108L5.24002 15.5833L7.74419 18.0858L7.82335 18.1558C7.98424 18.2801 8.18501 18.3413 8.38786 18.3278C8.59071 18.3144 8.78165 18.2273 8.92474 18.0829C9.06782 17.9384 9.15318 17.7467 9.16474 17.5437C9.17631 17.3408 9.11328 17.1406 8.98752 16.9808L8.92336 16.9083L7.83669 15.8225H12.5L12.7 15.82C13.7423 15.7842 14.7559 15.4695 15.6352 14.9087C16.5145 14.3479 17.2273 13.5616 17.6993 12.6316C18.1713 11.7016 18.3852 10.6621 18.3188 9.62131C18.2524 8.58053 17.9081 7.57661 17.3217 6.71418V6.71668H17.3225Z" fill="#F6F6F6"/>
</svg>
