<svg width="20" height="20" viewBox="0 0 20 20" fill="none" xmlns="http://www.w3.org/2000/svg">
<path d="M14.9609 9.78516C14.6354 10.1367 14.2318 10.0521 13.75 9.53126V6.28907C12.1484 6.41928 10.8659 6.75782 9.90234 7.30469C9.70703 6.51042 9.2513 5.79428 8.53516 5.15625C9.99349 4.21875 11.7318 3.74349 13.75 3.73047V0.449222C14.2318 -0.058591 14.6354 -0.136716 14.9609 0.214847L19.707 4.25782C19.9023 4.46615 20 4.71355 20 5C20 5.28646 19.9023 5.53386 19.707 5.74219L14.9609 9.78516ZM8.75 11.25C8.75 11.849 9.222 12.3763 10.166 12.832C11.11 13.2878 12.3047 13.5742 13.75 13.6914V10.4492C14.2318 9.94141 14.6354 9.86329 14.9609 10.2149L19.707 14.2578C19.9023 14.4662 20 14.7136 20 15C20 15.2865 19.9023 15.5339 19.707 15.7422L14.9609 19.7852C14.6354 20.1367 14.2318 20.0521 13.75 19.5313V16.25C12.3958 16.25 11.1426 16.0254 9.99023 15.5762C8.83789 15.127 7.92643 14.5182 7.25586 13.75C6.58529 12.9818 6.25 12.1484 6.25 11.25V8.75001C6.25 8.13803 5.77799 7.60417 4.83398 7.14844C3.88997 6.69271 2.69531 6.40626 1.25 6.28907V6.25001C0.911458 6.25001 0.61849 6.12631 0.371094 5.87891C0.123698 5.63152 0 5.33529 0 4.99024C0 4.64519 0.123698 4.34896 0.371094 4.10157C0.61849 3.85417 0.911458 3.73047 1.25 3.73047C2.60417 3.73047 3.85742 3.95508 5.00977 4.4043C6.16211 4.85352 7.07357 5.46224 7.74414 6.23047C8.41471 6.9987 8.75 7.83855 8.75 8.75001V11.25ZM1.25 13.75V13.6914C2.85156 13.5612 4.13411 13.2227 5.09766 12.6758C5.29297 13.457 5.7487 14.1732 6.46484 14.8242C5.00651 15.7747 3.26823 16.25 1.25 16.25C0.911458 16.25 0.61849 16.1263 0.371094 15.8789C0.123698 15.6315 0 15.3353 0 14.9902C0 14.6452 0.123698 14.3522 0.371094 14.1113C0.61849 13.8705 0.911458 13.75 1.25 13.75Z" fill="#F6F6F6"/>
</svg>
